<svg width="24" height="24" viewBox="0 0 24 24" fill="none" xmlns="http://www.w3.org/2000/svg">
<path fill-rule="evenodd" clip-rule="evenodd" d="M18.0533 12C18.0533 12.4142 17.7175 12.75 17.3033 12.75H6.6967C6.28249 12.75 5.9467 12.4142 5.9467 12C5.9467 11.5858 6.28249 11.25 6.6967 11.25H17.3033C17.7175 11.25 18.0533 11.5858 18.0533 12Z" fill="#526570"/>
<path fill-rule="evenodd" clip-rule="evenodd" d="M12 5.94671C12.4142 5.94671 12.75 6.28249 12.75 6.69671L12.75 17.3033C12.75 17.7175 12.4142 18.0533 12 18.0533C11.5858 18.0533 11.25 17.7175 11.25 17.3033L11.25 6.69671C11.25 6.28249 11.5858 5.94671 12 5.94671Z" fill="#526570"/>
<path d="M4 2H20V-2H4V2ZM22 4V20H26V4H22ZM20 22H4V26H20V22ZM2 20V4H-2V20H2ZM4 22C2.89543 22 2 21.1046 2 20H-2C-2 23.3137 0.686292 26 4 26V22ZM22 20C22 21.1046 21.1046 22 20 22V26C23.3137 26 26 23.3137 26 20H22ZM20 2C21.1046 2 22 2.89543 22 4H26C26 0.686291 23.3137 -2 20 -2V2ZM4 -2C0.686291 -2 -2 0.686292 -2 4H2C2 2.89543 2.89543 2 4 2V-2Z" fill="#526570"/>
</svg>
